HIERARCHY
ROOT Hips
{
	OFFSET 56.277401 -33.368816 94.296196
	CHANNELS 6 Xposition Yposition Zposition Xrotation Yrotation Zrotation
	JOINT spine
	{
		OFFSET 0.000000 -0.448574 7.800591
		CHANNELS 3 Xrotation Yrotation Zrotation
		JOINT spine1
		{
			OFFSET 0.000000 -0.000004 10.136398
			CHANNELS 3 Xrotation Yrotation Zrotation
			JOINT spine2
			{
				OFFSET 0.000000 0.000000 9.712509
				CHANNELS 3 Xrotation Yrotation Zrotation
				JOINT Neck
				{
					OFFSET 0.000000 -1.188873 24.936111
					CHANNELS 3 Xrotation Yrotation Zrotation
					JOINT Head
					{
						OFFSET 0.000000 -0.000004 7.533844
						CHANNELS 3 Xrotation Yrotation Zrotation
						End Site
						{
							OFFSET 0.000000 6.014017 18.236099
						}
					}
				}
				JOINT RightShoulder
				{
					OFFSET -4.089649 0.569454 10.488815
					CHANNELS 3 Xrotation Yrotation Zrotation
					JOINT RightArm
					{
						OFFSET 0.000000 0.000000 13.757004
						CHANNELS 3 Xrotation Yrotation Zrotation
						JOINT RightArmRoll
						{
							OFFSET 0.000000 -0.000004 6.944778
							CHANNELS 3 Xrotation Yrotation Zrotation
							JOINT RightForeArm
							{
								OFFSET 0.000000 0.000000 20.227692
								CHANNELS 3 Xrotation Yrotation Zrotation
								JOINT RightForeArmRoll
								{
									OFFSET 0.000000 -0.000004 7.793121
									CHANNELS 3 Xrotation Yrotation Zrotation
									JOINT RightHand
									{
										OFFSET 0.000000 0.000000 15.639099
										CHANNELS 3 Xrotation Yrotation Zrotation
										End Site
										{
											OFFSET 0.000000 0.000000 0.100006
										}
									}
								}
							}
						}
					}
				}
				JOINT LeftShoulder
				{
					OFFSET 4.089649 0.569454 10.488815
					CHANNELS 3 Xrotation Yrotation Zrotation
					JOINT LeftArm
					{
						OFFSET 0.000000 0.000000 13.757004
						CHANNELS 3 Xrotation Yrotation Zrotation
						JOINT LeftArmRoll
						{
							OFFSET 0.000000 -0.000004 6.944778
							CHANNELS 3 Xrotation Yrotation Zrotation
							JOINT LeftForeArm
							{
								OFFSET 0.000000 0.000000 20.227692
								CHANNELS 3 Xrotation Yrotation Zrotation
								JOINT LeftForeArmRoll
								{
									OFFSET 0.000000 -0.000004 7.793121
									CHANNELS 3 Xrotation Yrotation Zrotation
									JOINT LeftHand
									{
										OFFSET 0.000000 0.000000 15.639099
										CHANNELS 3 Xrotation Yrotation Zrotation
										End Site
										{
											OFFSET 0.000000 0.000000 0.100006
										}
									}
								}
							}
						}
					}
				}
			}
		}
	}
	JOINT RightUpLeg
	{
		OFFSET -6.914158 1.063580 -1.267883
		CHANNELS 3 Xrotation Yrotation Zrotation
		JOINT RightUpLegRoll
		{
			OFFSET 0.000000 -0.000004 18.337799
			CHANNELS 3 Xrotation Yrotation Zrotation
			JOINT RightLeg
			{
				OFFSET 0.000000 0.000004 -22.708496
				CHANNELS 3 Xrotation Yrotation Zrotation
				JOINT RightLegRoll
				{
					OFFSET 0.000000 -0.000004 22.782799
					CHANNELS 3 Xrotation Yrotation Zrotation
					JOINT RightFoot
					{
						OFFSET 0.000000 -0.000004 18.962906
						CHANNELS 3 Xrotation Yrotation Zrotation
						JOINT RightToeBase
						{
							OFFSET 0.000000 0.000000 15.852005
							CHANNELS 3 Xrotation Yrotation Zrotation
							End Site
							{
								OFFSET 0.006718 0.884892 7.677002
							}
						}
					}
				}
			}
		}
	}
	JOINT LeftUpLeg
	{
		OFFSET 6.914158 1.063580 -1.267883
		CHANNELS 3 Xrotation Yrotation Zrotation
		JOINT LeftUpLegRoll
		{
			OFFSET 0.000000 -0.000004 18.337898
			CHANNELS 3 Xrotation Yrotation Zrotation
			JOINT LeftLeg
			{
				OFFSET 0.000000 -0.000004 22.708405
				CHANNELS 3 Xrotation Yrotation Zrotation
				JOINT LeftLegRoll
				{
					OFFSET 0.000000 -0.000004 22.993408
					CHANNELS 3 Xrotation Yrotation Zrotation
					JOINT LeftFoot
					{
						OFFSET 0.000000 -0.000004 18.752197
						CHANNELS 3 Xrotation Yrotation Zrotation
						JOINT LeftToeBase
						{
							OFFSET 0.000000 0.000000 15.852005
							CHANNELS 3 Xrotation Yrotation Zrotation
							End Site
							{
								OFFSET -0.030113 0.884890 7.677017
							}
						}
					}
				}
			}
		}
	}
}
MOTION
Frames: 5
Frame Time: 0.041667
51.084507 -14.374912 78.346695 24.268663 3.849341 10.125724 2.318830 -0.708796 -0.185374 8.639032 -1.425211 -0.334703 10.284335 -1.429125 -0.317609 -54.102171 17.634802 4.164901 7.099040 -11.110828 -5.908383 -13.995920 -50.072226 -16.230322 -57.741087 -148.702193 -92.611874 -0.000002 0.000002 -0.000001 18.992079 -30.612351 7.439720 -0.000008 -0.000013 -3.000002 -5.000311 -7.999600 0.000187 -11.158860 59.204162 13.190123 114.035090 48.384042 -89.605709 0.000000 -0.000000 0.000001 29.796437 18.806306 -3.723560 -0.000009 -0.000001 3.000002 -5.000181 7.998892 -0.000135 -72.832568 -173.700467 0.127622 -179.999991 -0.000005 -0.628004 114.829605 -4.555642 -3.961638 0.000004 -0.000003 1.051480 81.257196 6.936681 0.793712 25.456959 -7.355614 -0.000000 -71.998964 169.713330 -5.492320 -0.000018 -0.000004 -0.801376 -62.356772 10.969462 7.265582 0.000003 -0.000001 -1.023950 78.637628 -9.013310 5.950004 25.465238 7.354027 -0.004998 
51.060299 -14.451511 78.490990 24.155015 3.854791 10.142551 2.309626 -0.709480 -0.183146 8.620658 -1.426448 -0.330341 10.265933 -1.430310 -0.313235 -54.056815 17.563919 4.156232 7.147511 -11.050212 -5.867876 -14.008029 -50.263270 -16.251800 -57.811855 -148.685760 -92.316126 -0.000002 0.000002 -0.000004 18.488805 -30.600972 7.271663 -0.000005 -0.000015 -3.000001 -5.000313 -7.999597 0.000180 -11.071005 59.247260 13.088567 114.314438 48.410106 -90.157835 0.000000 0.000001 -0.000002 29.444030 18.730604 -3.647543 -0.000009 0.000001 2.999999 -5.000181 7.998892 -0.000135 -72.456867 -173.718922 0.136520 -179.999991 -0.000005 -0.628004 115.152113 -4.591947 -3.961068 0.000001 -0.000002 1.043849 81.197767 6.941955 0.782439 25.456959 -7.355616 -0.000000 -71.641390 169.722155 -5.452896 -0.000016 -0.000005 -0.798396 -62.024408 11.015847 7.244379 0.000004 -0.000001 -1.012651 78.553077 -9.015025 5.926399 25.465238 7.354025 -0.005001 
51.061100 -14.526711 78.644188 24.042814 3.857961 10.161088 2.299825 -0.709852 -0.181924 8.601057 -1.427115 -0.328005 10.246427 -1.430949 -0.310886 -54.008218 17.502380 4.151367 7.195104 -11.002825 -5.826787 -14.021975 -50.445766 -16.275204 -57.875464 -148.672441 -92.015619 -0.000002 0.000003 -0.000003 17.988224 -30.583005 7.102779 -0.000009 -0.000013 -3.000000 -5.000312 -7.999599 0.000185 -10.989293 59.289785 12.994140 114.596859 48.434596 -90.719570 -0.000000 0.000000 -0.000002 29.084212 18.649258 -3.568996 -0.000009 0.000001 3.000000 -5.000179 7.998893 -0.000138 -72.082681 -173.733948 0.144178 -179.999991 -0.000005 -0.629001 115.473869 -4.627974 -3.962369 0.000002 -0.000002 1.036220 81.138802 6.946856 0.772622 25.456957 -7.355615 -0.000000 -71.283904 169.735747 -5.411930 -0.000017 -0.000005 -0.795476 -61.692475 11.061160 7.221957 0.000004 -0.000000 -1.001491 78.470227 -9.016001 5.901202 25.465242 7.354029 -0.005000 
51.066799 -14.607311 78.798492 23.931342 3.859159 10.179934 2.289604 -0.709787 -0.181579 8.580610 -1.426955 -0.327436 10.225924 -1.430776 -0.310321 -53.956947 17.447898 4.149762 7.242341 -10.967958 -5.784487 -14.037952 -50.620905 -16.300885 -57.931076 -148.666089 -91.706723 -0.000002 0.000003 -0.000002 17.485055 -30.558649 6.931966 -0.000009 -0.000015 -3.000003 -5.000311 -7.999596 0.000184 -10.915822 59.328403 12.909315 114.890079 48.453625 -91.299166 -0.000001 -0.000000 -0.000001 28.711957 18.561285 -3.487342 -0.000008 -0.000000 3.000003 -5.000180 7.998893 -0.000136 -71.708694 -173.747390 0.151690 -179.999991 -0.000005 -0.629001 115.795653 -4.662515 -3.960768 0.000001 -0.000002 1.028610 81.079810 6.951391 0.764076 25.456962 -7.355614 -0.000000 -70.925921 169.752891 -5.369564 -0.000021 -0.000004 -0.792586 -61.360555 11.105141 7.198242 0.000003 -0.000001 -0.990385 78.388387 -9.016195 5.873767 25.465238 7.354028 -0.004999 
51.057804 -14.682117 78.950592 23.820225 3.858627 10.199105 2.278978 -0.709342 -0.181991 8.559351 -1.426065 -0.328398 10.204716 -1.429897 -0.311295 -53.902808 17.399827 4.150690 7.289146 -10.944016 -5.741249 -14.055718 -50.789533 -16.328563 -57.980226 -148.664204 -91.392077 -0.000002 0.000002 -0.000003 16.981500 -30.527862 6.760041 -0.000009 -0.000012 -3.000002 -5.000307 -7.999600 0.000183 -10.849775 59.363449 12.833126 115.191277 48.468651 -91.892067 0.000001 0.000001 0.000001 28.329724 18.467389 -3.403394 -0.000008 -0.000001 3.000000 -5.000180 7.998893 -0.000135 -71.335247 -173.759002 0.157512 -179.999991 -0.000005 -0.629001 116.117492 -4.696016 -3.959189 0.000002 -0.000003 1.021029 81.020701 6.955633 0.756722 25.456959 -7.355616 -0.000000 -70.567500 169.773081 -5.325527 -0.000017 -0.000004 -0.789729 -61.028772 11.147730 7.173280 0.000003 -0.000000 -0.979360 78.307600 -9.015652 5.844785 25.465237 7.354024 -0.005000 
